<svg xmlns="http://www.w3.org/2000/svg" width="24" height="24" viewBox="0 0 24 24"
  fill="currentColor">
  <g clip-path="url(#clip0_64_80189)">
    <path
      d="M24.4875 12.2261C24.4875 11.2429 24.4059 10.5253 24.2292 9.78125H12.7393V14.2192H19.4836C19.3477 15.3221 18.6134 16.9831 16.9817 18.0992L16.9588 18.2478L20.5917 20.998L20.8434 21.0225C23.1549 18.9363 24.4875 15.8669 24.4875 12.2261Z"
      fill="#4285F4" />
    <path
      d="M12.7391 23.9178C16.0433 23.9178 18.8171 22.8548 20.8432 21.0211L16.9815 18.0978C15.9481 18.8021 14.5611 19.2937 12.7391 19.2937C9.50291 19.2937 6.75622 17.2076 5.77711 14.3242L5.63359 14.3361L1.85604 17.193L1.80664 17.3271C3.81906 21.2337 7.95273 23.9178 12.7391 23.9178Z"
      fill="#34A853" />
    <path
      d="M5.77678 14.3228C5.51843 13.5787 5.36891 12.7814 5.36891 11.9576C5.36891 11.1338 5.51843 10.3365 5.76318 9.59244L5.75634 9.43397L1.93145 6.53125L1.80631 6.58942C0.976896 8.21052 0.500977 10.0309 0.500977 11.9576C0.500977 13.8843 0.976896 15.7047 1.80631 17.3258L5.77678 14.3228Z"
      fill="#FBBC05" />
    <path
      d="M12.7391 4.62403C15.0371 4.62403 16.5871 5.59402 17.471 6.40461L20.9248 3.10928C18.8036 1.1826 16.0433 0 12.7391 0C7.95272 0 3.81906 2.68406 1.80664 6.59056L5.76351 9.59359C6.75622 6.7102 9.50291 4.62403 12.7391 4.62403Z"
      fill="#EB4335" />
  </g>
  <defs>
    <clipPath id="clip0_64_80189">
      <rect width="24" height="24" fill="white" transform="translate(0.5)" />
    </clipPath>
  </defs>
</svg>